<svg width="24" height="24" xmlns="http://www.w3.org/2000/svg" fill-rule="evenodd" clip-rule="evenodd"><path d="M14.8 21.314c-1.185.44-2.463.686-3.8.686-6.075 0-11-4.924-11-11 0-6.074 4.925-11 11-11 6.074 0 10.999 4.926 10.999 11 0 .463-.032.918-.09 1.365.264.282.421.666.421 1.103v.024l.121-.005c.881 0 1.547.675 1.547 1.57l.002 5.839c0 1.914-1.213 3.104-3.167 3.104h-2.64c-2.07 0-2.76-1.406-3.094-2.084l-.299-.602zm6.033 1.686c1.418 0 2.167-.766 2.167-2.104l-.002-5.839c0-.386-.274-.57-.547-.57-.276 0-.549.185-.549.535v2.56c0 .175-.141.259-.281.259-.145 0-.291-.089-.291-.259v-4.114c0-.396-.288-.589-.577-.589-.293 0-.587.199-.587.589v3.884c0 .164-.131.245-.264.245s-.268-.084-.268-.25v-4.557c0-.391-.285-.59-.613-.59-.322 0-.572.193-.572.59l-.002 4.609c0 .183-.143.275-.285.275-.145 0-.287-.092-.287-.275v-3.872c0-.369-.284-.557-.565-.557-.277 0-.553.182-.553.557v4.794c0 .154-.111.234-.226.234-.084 0-.172-.042-.219-.128l-.785-1.444c-.152-.292-.432-.419-.709-.419-.41 0-.818.277-.818.711 0 .111.027.233.085.362.112.265 1.557 3.112 1.913 3.839.375.762.847 1.524 2.195 1.524h2.64zm.124-11.109c.027-.293.042-.59.042-.891 0-5.514-4.486-10-9.999-10-5.514 0-10 4.486-10 10s4.486 10 10 10c1.176 0 2.301-.209 3.348-.587l-.046-.092c-.718-1.433-1.066-2.127-1.125-2.265-.117-.255-.177-.518-.177-.781 0-.943.816-1.711 1.818-1.711.344 0 .664.089.939.254v-2.291c0-.888.668-1.557 1.553-1.557l.326.032c.258-.49.764-.802 1.385-.802.59 0 1.086.28 1.367.72.117-.027.238-.041.365-.041l.204.012zm-12.519 5.991c-1.989-.746-3.569-2.329-4.308-4.321l-.935.116c.821 2.409 2.721 4.311 5.126 5.139l.117-.934zm.238-1.903c-1.166-.547-2.107-1.49-2.654-2.656l-.954.121c.65 1.578 1.91 2.838 3.49 3.489l.118-.954zm2.324-8.645c2.025 0 3.667 1.641 3.667 3.666s-1.642 3.667-3.667 3.667c-2.026 0-3.667-1.642-3.667-3.667s1.641-3.666 3.667-3.666zm0 1c-1.47 0-2.667 1.196-2.667 2.666 0 1.471 1.197 2.667 2.667 2.667 1.471 0 2.667-1.196 2.667-2.667 0-1.47-1.196-2.666-2.667-2.666zm-.916 2.666c0 .506.41.917.916.917s.917-.411.917-.917-.411-.916-.917-.916-.916.41-.916.916zm6.849-2.443c-.65-1.577-1.912-2.838-3.49-3.488l-.119.954c1.166.546 2.107 1.488 2.656 2.654l.953-.12zm.924-.115c-.746-1.977-2.319-3.547-4.301-4.287l.119-.934c2.395.822 4.289 2.712 5.117 5.104l-.935.117z"/></svg>